<svg width="18" height="18" viewBox="0 0 18 18" fill="none" xmlns="http://www.w3.org/2000/svg">
<path fill-rule="evenodd" clip-rule="evenodd" d="M6.55953 6.29519C6.47015 6.14281 6.24664 6.14281 6.15726 6.29519L5.2186 7.8952C5.1292 8.04758 5.24095 8.23805 5.41974 8.23805H5.9528C5.9809 8.48903 6.03722 8.7012 6.11425 8.89072C6.2168 9.14301 6.35205 9.34193 6.46349 9.50585L6.488 9.54193C6.6066 9.71706 6.70245 9.86595 6.77449 10.0621C6.84583 10.2563 6.90033 10.5165 6.90033 10.9047C6.90033 11.4488 6.73469 11.7151 6.52895 12.046C6.46218 12.1533 6.39122 12.2674 6.3203 12.4C6.17398 12.6736 6.06107 12.9931 6.08441 13.4184C6.10694 13.8284 6.2543 14.3035 6.55818 14.9016C6.66335 15.1087 6.91914 15.1925 7.12945 15.089C7.3398 14.9856 7.42508 14.7338 7.31991 14.5268C7.04313 13.9821 6.94856 13.6239 6.93478 13.3732C6.92185 13.1377 6.97833 12.9691 7.07391 12.7904C7.11122 12.7206 7.15922 12.6447 7.21241 12.5606C7.43619 12.2068 7.75194 11.7076 7.75194 10.9047C7.75194 10.4357 7.68548 10.077 7.57539 9.77716C7.46596 9.47921 7.31987 9.25905 7.19658 9.07704L7.18163 9.05499C7.06276 8.87967 6.97338 8.7478 6.90498 8.57945C6.86681 8.48558 6.83356 8.37539 6.81169 8.23805H7.29707C7.47587 8.23805 7.58758 8.04758 7.4982 7.8952L6.55953 6.29519Z" fill="#F87171"/>
<path fill-rule="evenodd" clip-rule="evenodd" d="M9.24044 6.29519C9.15106 6.14281 8.92755 6.14281 8.83817 6.29519L7.8995 7.8952C7.81011 8.04758 7.92187 8.23805 8.10063 8.23805H8.6337C8.6618 8.48903 8.71813 8.7012 8.79516 8.89072C8.8977 9.14301 9.03295 9.34193 9.1444 9.50585L9.1689 9.54193C9.28751 9.71706 9.38335 9.86595 9.45539 10.0621C9.52673 10.2563 9.58124 10.5165 9.58124 10.9047C9.58124 11.4488 9.4156 11.7151 9.20986 12.046C9.14308 12.1533 9.07213 12.2674 9.00121 12.4C8.85489 12.6736 8.74197 12.9931 8.76531 13.4184C8.78784 13.8284 8.93521 14.3035 9.23908 14.9016C9.34426 15.1087 9.60005 15.1925 9.81036 15.089C10.0207 14.9856 10.106 14.7338 10.0008 14.5268C9.72404 13.9821 9.62947 13.6239 9.61569 13.3732C9.60276 13.1377 9.65924 12.9691 9.75481 12.7904C9.79213 12.7206 9.84013 12.6447 9.89331 12.5606C10.1171 12.2068 10.4329 11.7076 10.4329 10.9047C10.4329 10.4357 10.3664 10.077 10.2563 9.77716C10.1469 9.47921 10.0008 9.25905 9.87748 9.07704L9.86254 9.05499C9.74366 8.87967 9.65428 8.7478 9.58588 8.57945C9.54771 8.48558 9.51446 8.37539 9.49259 8.23805H9.97797C10.1568 8.23805 10.2685 8.04758 10.1791 7.8952L9.24044 6.29519Z" fill="#F87171"/>
<path fill-rule="evenodd" clip-rule="evenodd" d="M3.87851 6.29519C3.78911 6.14281 3.56562 6.14281 3.47622 6.29519L2.53757 7.8952C2.44817 8.04758 2.55992 8.23805 2.73871 8.23805H3.27176C3.29989 8.48903 3.3562 8.7012 3.43323 8.89072C3.53577 9.14301 3.671 9.34193 3.78245 9.50585L3.80695 9.54193C3.92558 9.71706 4.02143 9.86595 4.09345 10.0621C4.16479 10.2563 4.2193 10.5165 4.2193 10.9047C4.2193 11.4488 4.05367 11.7151 3.8479 12.046H3.8479C3.78115 12.1533 3.71018 12.2674 3.63927 12.4C3.49294 12.6736 3.38003 12.9931 3.40339 13.4184C3.42591 13.8284 3.57329 14.3035 3.87716 14.9016C3.98233 15.1087 4.2381 15.1925 4.44844 15.089C4.65878 14.9856 4.74404 14.7338 4.63887 14.5268C4.3621 13.9821 4.26754 13.6239 4.25376 13.3732C4.24083 13.1377 4.29728 12.9691 4.39288 12.7904C4.43021 12.7206 4.4782 12.6447 4.53139 12.5606C4.75517 12.2068 5.07092 11.7076 5.07092 10.9047C5.07092 10.4357 5.00446 10.077 4.89435 9.77716C4.78492 9.47921 4.63883 9.25905 4.51553 9.07704L4.50059 9.05499C4.38174 8.87967 4.29235 8.7478 4.22393 8.57945C4.18578 8.48558 4.15254 8.37539 4.13065 8.23805H4.61603C4.79482 8.23805 4.90657 8.04758 4.81717 7.8952L3.87851 6.29519Z" fill="#F87171"/>
</svg>
